<?xml version="1.0" encoding="UTF-8"?>
<svg id="Capa_1" xmlns="http://www.w3.org/2000/svg" version="1.1" xmlns:xlink="http://www.w3.org/1999/xlink" viewBox="0 0 800 800">
  <!-- Generator: Adobe Illustrator 29.3.1, SVG Export Plug-In . SVG Version: 2.1.0 Build 151)  -->
  <defs>
    <style>
      .st0 {
        fill: #f08c23;
      }
    </style>
  </defs>
  <path class="st0" d="M481.7,176.8h102.5v119.5s52-80.7,52-80.7v-67.6c0-4.1-1.6-8.1-4.6-11L499,4.6C496.1,1.6,492.1,0,488,0H78.3C52.5,0,31.6,21,31.6,46.7v706.5c0,25.8,21,46.7,46.8,46.7h511c25.8,0,46.8-21,46.8-46.7v-200.6l-51.9,79.5v115.9s-500.6,0-500.6,0V52h378.9v105.6c0,10.7,8.6,19.3,19.3,19.3Z"/>
  <path class="st0" d="M694.1,371.7l-21.5-14c-3.5-2.3-8.2-1.3-10.5,2.2l-115.6,176.9-22.2-14.5,115.6-176.9c2.3-3.5,1.3-8.2-2.2-10.5l-21.5-14c-3.5-2.3-8.2-1.3-10.5,2.2l-173.1,264.9c-.7,1.1-1.2,2.4-1.2,3.8l-4.5,91.9c-.1,2.7,1.2,5.2,3.4,6.7,2.3,1.5,5.1,1.6,7.5.4l82.4-41.1c1.2-.6,2.2-1.5,3-2.6l173.1-264.9c2.3-3.5,1.3-8.2-2.2-10.5Z"/>
  <path class="st0" d="M765,263.1l-77.8-50.9c-3.5-2.3-8.2-1.3-10.5,2.2l-52.5,80.3c-2.3,3.5-1.3,8.2,2.2,10.5l77.8,50.9c3.5,2.3,8.2,1.3,10.5-2.2l52.5-80.3c2.3-3.5,1.3-8.2-2.2-10.5Z"/>
  <path class="st0" d="M159.2,166.6h148.6c10.5,0,19-8.5,19-19s-8.5-19-19-19h-148.6c-10.5,0-19,8.5-19,19s8.5,19,19,19Z"/>
  <path class="st0" d="M441.1,242.8c0-10.5-8.5-19-19-19H159.2c-10.5,0-19,8.5-19,19s8.5,19,19,19h262.9c10.5,0,19-8.5,19-19Z"/>
  <path class="st0" d="M159.2,357.1h148.6c10.5,0,19-8.5,19-19s-8.5-19-19-19h-148.6c-10.5,0-19,8.5-19,19s8.5,19,19,19Z"/>
  <path class="st0" d="M159.2,452.3h148.6c10.5,0,19-8.5,19-19s-8.5-19-19-19h-148.6c-10.5,0-19,8.5-19,19s8.5,19,19,19Z"/>
  <path class="st0" d="M167.2,698.5c-3.7,4.8,3,11.6,6.7,6.7,11.8-15.3,21.6-31.8,29.8-49.1,5.1,3.2,11.8,2.6,17.3.4,7.9-3.1,14.6-9.1,21-14.6,3.8-3.2,8.2-8.5,13.4-9,4-.4,9.4,2.8,13.4,3.5,10.4,1.8,22.6-1.2,32.6-3.7,9.5-2.4,20.7-6.1,26.3-14.7,3.4-5.2-4.9-9.9-8.2-4.8-4.5,6.9-15.5,9.1-22.9,10.9-8.7,2.2-18.8,4.3-27.8,2.7-6.8-1.2-12.2-5.2-19.2-2.1-9.3,4.2-16.4,12.9-24.7,18.8-3.7,2.6-7.9,5.2-12.5,5.5-1.9.1-3.4-.5-4.7-1.7,1-2.4,2-4.7,3-7.1,9.3-23.1,13.5-46.5,17.8-70.8,2.2-12.3,5.8-31.8-11.9-33-15.6-1-29.1,21.5-34.1,33.4-4.5,10.6-5,23-4.6,34.3.2,7.1,2.8,14.4,4.6,21.7-15,2.4-28.2,17.6-25.9,32.6,2.3,14.8,20.8,7.1,27.7,1.7,7-5.5,9.2-12.4,9.3-19.9,1.4,2.3,2.6,5,3.8,7.6-8,18.1-18.1,35.2-30.1,50.7ZM183.9,644.6c-1.4,6.3-9.4,12.5-15.6,13.1-4.9.5-1.9-8.3-.9-10.3,3.1-6.2,10.6-10.2,17-11.9.3,3.1.2,6.2-.4,9.2ZM191.9,626.1c-1.6-7.6-3.9-15.2-4.5-22.1-1.1-13.3,1.2-27.2,7.8-38.8,4.1-7.3,12.5-18.4,21.4-19.3,7.9-.8,3.1,18.5,2.4,22.4-2.1,12-3.6,23.9-6.6,35.7-2.8,11-6.2,21.9-10.4,32.6-2.2-5.5-5.1-9.1-10.2-10.4Z"/>
</svg>